<mxfile host="65bd71144e">
    <diagram id="fi_AEgMbfAB1gWuM8y19" name="Page-1">
        <mxGraphModel dx="519" dy="635" grid="1" gridSize="10" guides="1" tooltips="1" connect="1" arrows="1" fold="1" page="1" pageScale="1" pageWidth="850" pageHeight="1100" math="0" shadow="0">
            <root>
                <mxCell id="0"/>
                <mxCell id="1" parent="0"/>
                <mxCell id="2" value="" style="rounded=0;whiteSpace=wrap;html=1;" vertex="1" parent="1">
                    <mxGeometry width="850" height="170" as="geometry"/>
                </mxCell>
                <mxCell id="3" value="&lt;font style=&quot;font-size: 48px;&quot;&gt;Zen Garden&lt;/font&gt;" style="text;html=1;strokeColor=none;fillColor=none;align=center;verticalAlign=middle;whiteSpace=wrap;rounded=0;" vertex="1" parent="1">
                    <mxGeometry x="290" y="50" width="280" height="30" as="geometry"/>
                </mxCell>
                <mxCell id="4" value="&lt;font style=&quot;font-size: 24px;&quot;&gt;The Beauty of CSS Design&lt;/font&gt;" style="text;html=1;strokeColor=none;fillColor=none;align=center;verticalAlign=middle;whiteSpace=wrap;rounded=0;fontSize=48;" vertex="1" parent="1">
                    <mxGeometry x="270" y="100" width="320" height="30" as="geometry"/>
                </mxCell>
                <mxCell id="5" value="" style="rounded=0;whiteSpace=wrap;html=1;fontSize=24;" vertex="1" parent="1">
                    <mxGeometry y="170" width="850" height="140" as="geometry"/>
                </mxCell>
                <mxCell id="6" value="&lt;p&gt;&lt;font style=&quot;font-size: 14px;&quot;&gt;A demonstration of what can be accomplished through CSS-based design. Select any style sheet from the list to load it into this page.&lt;/font&gt;&lt;/p&gt;&lt;font style=&quot;font-size: 14px;&quot;&gt;Download the example html file and css file.&lt;/font&gt;" style="text;html=1;strokeColor=none;fillColor=none;align=center;verticalAlign=middle;whiteSpace=wrap;rounded=0;fontSize=24;" vertex="1" parent="1">
                    <mxGeometry x="60" y="210" width="760" height="30" as="geometry"/>
                </mxCell>
                <mxCell id="7" value="" style="rounded=0;whiteSpace=wrap;html=1;fontSize=14;" vertex="1" parent="1">
                    <mxGeometry x="20" y="360" width="580" height="280" as="geometry"/>
                </mxCell>
                <mxCell id="8" value="&lt;font style=&quot;font-size: 36px;&quot;&gt;The Road to Enlightenment&lt;/font&gt;" style="text;html=1;strokeColor=none;fillColor=none;align=center;verticalAlign=middle;whiteSpace=wrap;rounded=0;fontSize=14;" vertex="1" parent="1">
                    <mxGeometry x="60" y="392" width="490" height="30" as="geometry"/>
                </mxCell>
                <mxCell id="9" value="&lt;div style=&quot;text-align: justify;&quot;&gt;&lt;span style=&quot;background-color: initial;&quot;&gt;Littering a dark and dreary road lay past the relics of browser-specific tags, incompatible DOMs, broken CSS support, and abandoned browsers.&lt;/span&gt;&lt;/div&gt;&lt;div style=&quot;text-align: justify;&quot;&gt;&lt;span style=&quot;background-color: initial;&quot;&gt;&lt;br&gt;&lt;/span&gt;&lt;/div&gt;&lt;div style=&quot;text-align: justify;&quot;&gt;&lt;span style=&quot;background-color: initial;&quot;&gt;We must clear the mind of the past. Web enlightenment has been achieved thanks to the tireless eforts of folk like the W3C, WaSP, and the major browser creators.&lt;/span&gt;&lt;/div&gt;&lt;div style=&quot;text-align: justify;&quot;&gt;&lt;span style=&quot;background-color: initial;&quot;&gt;&lt;br&gt;&lt;/span&gt;&lt;/div&gt;&lt;div style=&quot;text-align: justify;&quot;&gt;&lt;span style=&quot;background-color: initial;&quot;&gt;The CSS Zen Garden invites you to relaz and meditate on the important lessons of the masters. Begin to see with clarity. Learn to use the time-honored techniques in new and invigorating fashion. Become one with the web.&lt;/span&gt;&lt;/div&gt;" style="text;html=1;strokeColor=none;fillColor=none;align=center;verticalAlign=middle;whiteSpace=wrap;rounded=0;fontFamily=Helvetica;fontSize=14;" vertex="1" parent="1">
                    <mxGeometry x="50" y="514" width="520" height="30" as="geometry"/>
                </mxCell>
                <mxCell id="10" value="" style="rounded=0;whiteSpace=wrap;html=1;fontSize=14;" vertex="1" parent="1">
                    <mxGeometry x="20" y="640" width="580" height="310" as="geometry"/>
                </mxCell>
                <mxCell id="11" value="&lt;font style=&quot;font-size: 36px;&quot;&gt;So What is This About?&lt;/font&gt;" style="text;html=1;strokeColor=none;fillColor=none;align=center;verticalAlign=middle;whiteSpace=wrap;rounded=0;fontSize=14;" vertex="1" parent="1">
                    <mxGeometry x="40" y="673" width="520" height="30" as="geometry"/>
                </mxCell>
                <mxCell id="12" value="&lt;div style=&quot;text-align: justify;&quot;&gt;There is a continuing need to show the power of CSS. The Zen Garden aims to excite, inspire, and encourage participation. To begin, view some of the existing designs in the list. Clicking on any one will load the style sheet into this very page. The HTML remains the same, the only thing that has changed is the external CSS file. Yes, really.&lt;/div&gt;&lt;div style=&quot;text-align: justify;&quot;&gt;&lt;br&gt;&lt;/div&gt;&lt;div style=&quot;text-align: justify;&quot;&gt;CSS allows complete and total control over the style of a hypertext document. The only way this can be illustrated in a way that gets people excited is by demonstrating what it can truly be, once the reins are placed in the hands of those able to create beauty from structure. Designers and coders alike have contributed to the beauty of the web; we can always push it further.&lt;/div&gt;" style="text;html=1;strokeColor=none;fillColor=none;align=center;verticalAlign=middle;whiteSpace=wrap;rounded=0;fontFamily=Helvetica;fontSize=14;" vertex="1" parent="1">
                    <mxGeometry x="50" y="810" width="520" height="30" as="geometry"/>
                </mxCell>
                <mxCell id="13" value="" style="rounded=0;whiteSpace=wrap;html=1;fontSize=14;" vertex="1" parent="1">
                    <mxGeometry x="20" y="950" width="580" height="350" as="geometry"/>
                </mxCell>
                <mxCell id="14" value="&lt;font style=&quot;font-size: 36px;&quot;&gt;Participation&lt;/font&gt;" style="text;html=1;strokeColor=none;fillColor=none;align=center;verticalAlign=middle;whiteSpace=wrap;rounded=0;fontSize=14;" vertex="1" parent="1">
                    <mxGeometry x="50" y="980" width="510" height="30" as="geometry"/>
                </mxCell>
                <mxCell id="15" value="&lt;div style=&quot;text-align: justify;&quot;&gt;Strong visual design has always been our focus. You are modifying this page, so strong CSS skills are necessary too, but the example files are commented well enough that even CSS novices can use them as starting points. Please see the CSS Resource Guide for advanced tutorials and tips on working with CSS.&lt;/div&gt;&lt;div style=&quot;text-align: justify;&quot;&gt;&lt;br&gt;&lt;/div&gt;&lt;div style=&quot;text-align: justify;&quot;&gt;You may modify the style sheet in any way you wish, but not the HTML. This may seem ddaunting at first if you've never worked this way before, but follow the listed links to learn more, and use the sample files as a guide.&lt;/div&gt;&lt;div style=&quot;text-align: justify;&quot;&gt;&lt;br&gt;&lt;/div&gt;&lt;div style=&quot;text-align: justify;&quot;&gt;Download the sample HTML and CSS to work on a copy locally. Once you have completed your masterpiece (and please, don't submit half-finished work) upload your CSS file to a web server under your control. Send us a link to an archive of that file and all associated assets, and if we choose to use it we will download it and pleace it on our server.&lt;/div&gt;" style="text;html=1;strokeColor=none;fillColor=none;align=center;verticalAlign=middle;whiteSpace=wrap;rounded=0;fontFamily=Helvetica;fontSize=14;" vertex="1" parent="1">
                    <mxGeometry x="50" y="1140" width="520" height="30" as="geometry"/>
                </mxCell>
                <mxCell id="16" value="" style="rounded=0;whiteSpace=wrap;html=1;fontSize=14;" vertex="1" parent="1">
                    <mxGeometry x="20" y="1300" width="580" height="180" as="geometry"/>
                </mxCell>
                <mxCell id="17" value="&lt;font style=&quot;font-size: 36px;&quot;&gt;Benefits&lt;/font&gt;" style="text;html=1;strokeColor=none;fillColor=none;align=center;verticalAlign=middle;whiteSpace=wrap;rounded=0;fontSize=14;" vertex="1" parent="1">
                    <mxGeometry x="50" y="1330" width="510" height="30" as="geometry"/>
                </mxCell>
                <mxCell id="18" value="&lt;div style=&quot;text-align: justify;&quot;&gt;Why participate? For recognition, inspiration, and a resource we can all refer to showing people how amazing CSS really can be. This site serves as equal parts inspiration for those working on the web today, learning tool for those who will be tomorrow, and gallery of future techniques we can all look forward to.&lt;/div&gt;" style="text;html=1;strokeColor=none;fillColor=none;align=center;verticalAlign=middle;whiteSpace=wrap;rounded=0;fontFamily=Helvetica;fontSize=14;" vertex="1" parent="1">
                    <mxGeometry x="50" y="1400" width="520" height="30" as="geometry"/>
                </mxCell>
                <mxCell id="19" value="" style="rounded=0;whiteSpace=wrap;html=1;fontSize=14;" vertex="1" parent="1">
                    <mxGeometry x="20" y="1480" width="580" height="560" as="geometry"/>
                </mxCell>
                <mxCell id="20" value="&lt;font style=&quot;font-size: 36px;&quot;&gt;Requirements&lt;/font&gt;" style="text;html=1;strokeColor=none;fillColor=none;align=center;verticalAlign=middle;whiteSpace=wrap;rounded=0;fontSize=14;" vertex="1" parent="1">
                    <mxGeometry x="50" y="1510" width="520" height="30" as="geometry"/>
                </mxCell>
                <mxCell id="21" value="&lt;div style=&quot;text-align: justify;&quot;&gt;Where possible, we would like to see mostly CSS 1 &amp;amp; 2 usage. CSS 3 &amp;amp; 4 should be limited to widely-supported elements only, or strong fallbacks should be provided. The CSS Zen Garden is about functional, practical CSS and not latest bleeding-edge tricks viewable by 2% of the browsing public. The only real requirement we have is that your CSS validates.&lt;/div&gt;&lt;div style=&quot;text-align: justify;&quot;&gt;&lt;br&gt;&lt;/div&gt;&lt;div style=&quot;text-align: justify;&quot;&gt;Luckily, designing this way shows how well various browsers have implemented CSS by now. When sticking to the guidelines you should see fairly consistent results across most modern browsers. Due to the sheer number of user agents on the web these days--especially when you factor in mobile--pixel-perfect layouts may not be possible across every platform. That's okay, but do test in as many as you can. Your design should work in at least IE9+ and the latest Chrome, Firefox, iOS and Android borwsers (run by over 90% of the population).&lt;/div&gt;&lt;div style=&quot;text-align: justify;&quot;&gt;&lt;br&gt;&lt;/div&gt;&lt;div style=&quot;text-align: justify;&quot;&gt;We ask that you submit original artwork. Please respect copyright laws. Please keep objectionable material to a minimum, and try to incorporate unique and interesting visual themes to your work. We're well past the point of needing another garden-related design.&lt;/div&gt;&lt;div style=&quot;text-align: justify;&quot;&gt;&lt;br&gt;&lt;/div&gt;&lt;div style=&quot;text-align: justify;&quot;&gt;This is a learning excericise as well as a demonstration. You retain full copyright on your graphics (with limited exceptions, see submission guidelines), but we ask you release your CSS under a Creative Commons license identical to the one on this site so that others may learn from your owrk.&lt;/div&gt;&lt;div style=&quot;text-align: justify;&quot;&gt;&lt;br&gt;&lt;/div&gt;&lt;div style=&quot;text-align: justify;&quot;&gt;By Dave Shea. Bandwidth graciously donated by mediatemple. Now available: Zen Garden, the book.&lt;/div&gt;" style="text;html=1;strokeColor=none;fillColor=none;align=center;verticalAlign=middle;whiteSpace=wrap;rounded=0;fontFamily=Helvetica;fontSize=14;" vertex="1" parent="1">
                    <mxGeometry x="50" y="1770" width="520" height="30" as="geometry"/>
                </mxCell>
                <mxCell id="22" value="&lt;font style=&quot;font-size: 18px;&quot;&gt;HTML&amp;nbsp; CSS&amp;nbsp; CC&amp;nbsp; A11y&amp;nbsp; GH&lt;/font&gt;" style="rounded=0;whiteSpace=wrap;html=1;fontFamily=Helvetica;fontSize=14;" vertex="1" parent="1">
                    <mxGeometry y="2100" width="850" height="100" as="geometry"/>
                </mxCell>
                <mxCell id="25" value="" style="rounded=0;whiteSpace=wrap;html=1;fontSize=18;" vertex="1" parent="1">
                    <mxGeometry x="640" y="360" width="210" height="340" as="geometry"/>
                </mxCell>
                <mxCell id="26" value="&lt;font style=&quot;font-size: 18px;&quot;&gt;Select a Deisgn&lt;/font&gt;" style="text;html=1;strokeColor=none;fillColor=none;align=center;verticalAlign=middle;whiteSpace=wrap;rounded=0;fontSize=18;" vertex="1" parent="1">
                    <mxGeometry x="675" y="376" width="140" height="30" as="geometry"/>
                </mxCell>
                <mxCell id="27" value="&lt;font style=&quot;font-size: 12px;&quot;&gt;Mid Century Modern by Andrew Lohman&lt;br&gt;Garments by Dan Mall&lt;br&gt;Steel by Steffen Knoeller&lt;br&gt;Apothecary by Trent Walton&lt;br&gt;Screen Filler by Elliot Jay Stocks&lt;br&gt;Fountain Kiss by Jeremy Carlson&lt;br&gt;A Robot Named Jimmy by meltmedia&lt;br&gt;Verde Moderna by Dave Shea&lt;/font&gt;" style="text;html=1;strokeColor=none;fillColor=none;align=left;verticalAlign=middle;whiteSpace=wrap;rounded=0;fontSize=18;" vertex="1" parent="1">
                    <mxGeometry x="660" y="530" width="170" height="30" as="geometry"/>
                </mxCell>
                <mxCell id="28" value="" style="rounded=0;whiteSpace=wrap;html=1;fontSize=18;" vertex="1" parent="1">
                    <mxGeometry x="640" y="700" width="210" height="120" as="geometry"/>
                </mxCell>
                <mxCell id="29" value="&lt;font style=&quot;font-size: 18px;&quot;&gt;Archives&lt;/font&gt;" style="text;html=1;strokeColor=none;fillColor=none;align=center;verticalAlign=middle;whiteSpace=wrap;rounded=0;fontSize=18;" vertex="1" parent="1">
                    <mxGeometry x="675" y="716" width="140" height="30" as="geometry"/>
                </mxCell>
                <mxCell id="30" value="&lt;font style=&quot;font-size: 12px;&quot;&gt;Next Designs &amp;gt;&lt;br&gt;View All Designs&lt;/font&gt;" style="text;html=1;strokeColor=none;fillColor=none;align=left;verticalAlign=middle;whiteSpace=wrap;rounded=0;fontSize=18;" vertex="1" parent="1">
                    <mxGeometry x="660" y="760" width="170" height="30" as="geometry"/>
                </mxCell>
                <mxCell id="31" value="" style="rounded=0;whiteSpace=wrap;html=1;fontSize=18;" vertex="1" parent="1">
                    <mxGeometry x="640" y="820" width="210" height="180" as="geometry"/>
                </mxCell>
                <mxCell id="32" value="&lt;font style=&quot;font-size: 18px;&quot;&gt;Resources&lt;/font&gt;" style="text;html=1;strokeColor=none;fillColor=none;align=center;verticalAlign=middle;whiteSpace=wrap;rounded=0;fontSize=18;" vertex="1" parent="1">
                    <mxGeometry x="675" y="836" width="140" height="30" as="geometry"/>
                </mxCell>
                <mxCell id="33" value="&lt;font style=&quot;font-size: 12px;&quot;&gt;View This Design's CSS&lt;br&gt;CSS Resources&lt;br&gt;FAQ&lt;br&gt;Submit a Design&lt;br&gt;Translations&lt;/font&gt;" style="text;html=1;strokeColor=none;fillColor=none;align=left;verticalAlign=middle;whiteSpace=wrap;rounded=0;fontSize=18;" vertex="1" parent="1">
                    <mxGeometry x="660" y="910" width="170" height="30" as="geometry"/>
                </mxCell>
            </root>
        </mxGraphModel>
    </diagram>
</mxfile>